<svg width="75" height="75" viewBox="0 0 75 75" fill="none" xmlns="http://www.w3.org/2000/svg">
<path d="M68.7471 34.3816C68.7558 32.179 68.1824 30.0131 67.0849 28.1034C65.9873 26.1937 64.4046 24.6079 62.4971 23.5066C62.5441 22.966 62.5441 22.4222 62.4971 21.8816C62.4971 19.3952 61.5094 17.0106 59.7512 15.2525C57.9931 13.4943 55.6085 12.5066 53.1221 12.5066H52.5596C52.0392 11.0638 51.1728 9.77076 50.0363 8.7408C48.8998 7.71085 47.528 6.97545 46.0411 6.59911C44.5542 6.22276 42.9977 6.21697 41.5081 6.58222C40.0185 6.94748 38.6412 7.67263 37.4971 8.6941C36.353 7.67263 34.9757 6.94748 33.4861 6.58222C31.9964 6.21697 30.4399 6.22276 28.9531 6.59911C27.4662 6.97545 26.0944 7.71085 24.9579 8.7408C23.8214 9.77076 22.955 11.0638 22.4346 12.5066H21.8721C19.3857 12.5066 17.0011 13.4943 15.243 15.2525C13.4848 17.0106 12.4971 19.3952 12.4971 21.8816C12.45 22.4222 12.45 22.966 12.4971 23.5066C10.7235 24.5091 9.22187 25.9299 8.12283 27.6453C7.0238 29.3607 6.3607 31.3187 6.19126 33.3489C6.02182 35.3791 6.35117 37.42 7.15065 39.2938C7.95012 41.1677 9.19548 42.8177 10.7783 44.1003C9.75418 46.0105 9.24432 48.1542 9.29879 50.321C9.35326 52.4877 9.97019 54.6031 11.089 56.4594C12.2079 58.3157 13.7902 59.8492 15.6806 60.9094C17.5711 61.9696 19.7047 62.52 21.8721 62.5066H22.4346C22.955 63.9494 23.8214 65.2424 24.9579 66.2724C26.0944 67.3023 27.4662 68.0377 28.9531 68.4141C30.4399 68.7904 31.9964 68.7962 33.4861 68.431C34.9757 68.0657 36.353 67.3406 37.4971 66.3191C38.6412 67.3406 40.0185 68.0657 41.5081 68.431C42.9977 68.7962 44.5542 68.7904 46.0411 68.4141C47.528 68.0377 48.8998 67.3023 50.0363 66.2724C51.1728 65.2424 52.0392 63.9494 52.5596 62.5066H53.1221C55.2762 62.493 57.3903 61.9229 59.2593 60.8516C61.1282 59.7804 62.6886 58.2443 63.789 56.3924C64.8895 54.5405 65.4926 52.4356 65.5401 50.2819C65.5875 48.1283 65.0775 45.9989 64.0596 44.1003C65.5172 42.9333 66.6948 41.4546 67.506 39.7728C68.3172 38.091 68.7412 36.2488 68.7471 34.3816ZM34.3721 26.7253C33.6915 26.3361 32.9809 26.0017 32.2471 25.7253C31.4597 25.4601 30.5993 25.5186 29.855 25.8878C29.1107 26.257 28.5435 26.9067 28.2783 27.6941C28.0131 28.4815 28.0715 29.3419 28.4408 30.0862C28.81 30.8305 29.4597 31.3976 30.2471 31.6628C31.45 32.0977 32.4906 32.8913 33.2282 33.9363C33.9659 34.9813 34.3651 36.2275 34.3721 37.5066V42.3503C33.6915 41.9611 32.9809 41.6267 32.2471 41.3503C31.4597 41.0851 30.5993 41.1436 29.855 41.5128C29.1107 41.882 28.5435 42.5317 28.2783 43.3191C28.0131 44.1065 28.0715 44.9669 28.4408 45.7112C28.81 46.4555 29.4597 47.0226 30.2471 47.2878C31.45 47.7227 32.4906 48.5163 33.2282 49.5613C33.9659 50.6063 34.3651 51.8525 34.3721 53.1316V59.3816C34.3721 60.2104 34.0428 61.0053 33.4568 61.5913C32.8707 62.1774 32.0759 62.5066 31.2471 62.5066C30.6425 62.5027 30.052 62.3234 29.5473 61.9906C29.0425 61.6578 28.6452 61.1857 28.4033 60.6316C28.9273 60.3241 29.4286 59.9795 29.9033 59.6003C30.2193 59.3377 30.4805 59.0154 30.6719 58.6518C30.8634 58.2882 30.9813 57.8905 31.019 57.4814C31.0567 57.0722 31.0135 56.6596 30.8918 56.2672C30.7701 55.8747 30.5722 55.5101 30.3096 55.1941C30.0469 54.8781 29.7246 54.6169 29.3611 54.4255C28.9975 54.2341 28.5998 54.1161 28.1906 54.0784C27.7814 54.0407 27.3689 54.0839 26.9764 54.2056C26.584 54.3274 26.2193 54.5252 25.9033 54.7878C24.775 55.7378 23.347 56.258 21.8721 56.2566C20.2145 56.2566 18.6248 55.5981 17.4527 54.426C16.2806 53.2539 15.6221 51.6642 15.6221 50.0066C15.637 48.8303 15.9837 47.6821 16.6221 46.6941C17.3234 46.8199 18.0346 46.8826 18.7471 46.8816C19.5759 46.8816 20.3707 46.5524 20.9568 45.9663C21.5428 45.3802 21.8721 44.5854 21.8721 43.7566C21.8721 42.9278 21.5428 42.1329 20.9568 41.5469C20.3707 40.9608 19.5759 40.6316 18.7471 40.6316C18.0089 40.6358 17.2768 40.4979 16.5908 40.2253C15.4669 39.82 14.4827 39.101 13.7549 38.1535C13.027 37.206 12.586 36.0697 12.484 34.8793C12.3821 33.6889 12.6235 32.4942 13.1797 31.4367C13.7358 30.3793 14.5834 29.5034 15.6221 28.9128C16.0661 29.3214 16.5474 29.6876 17.0596 30.0066C17.7806 30.421 18.6368 30.532 19.4397 30.3151C20.2426 30.0983 20.9264 29.5714 21.3408 28.8503C21.7552 28.1293 21.8662 27.2731 21.6494 26.4703C21.4325 25.6674 20.9056 24.9835 20.1846 24.5691C19.7447 24.3264 19.3778 23.9703 19.1221 23.5378C18.8332 23.0361 18.7025 22.4588 18.7471 21.8816C18.7471 21.0528 19.0763 20.2579 19.6624 19.6719C20.2484 19.0858 21.0433 18.7566 21.8721 18.7566C22.0898 18.7262 22.3106 18.7262 22.5283 18.7566C22.6938 19.2587 22.8921 19.7493 23.1221 20.2253C23.3262 20.5834 23.5992 20.8976 23.9253 21.1497C24.2514 21.4019 24.6241 21.587 25.0221 21.6945C25.42 21.8019 25.8353 21.8296 26.244 21.7759C26.6526 21.7222 27.0467 21.5882 27.4033 21.3816C28.0962 20.9647 28.6005 20.2956 28.8102 19.5147C29.02 18.7338 28.919 17.902 28.5283 17.1941C28.2661 16.7147 28.1266 16.178 28.1221 15.6316C28.1221 14.8028 28.4513 14.0079 29.0374 13.4219C29.6234 12.8358 30.4183 12.5066 31.2471 12.5066C32.0759 12.5066 32.8707 12.8358 33.4568 13.4219C34.0428 14.0079 34.3721 14.8028 34.3721 15.6316V26.7253ZM58.4033 40.2253C57.7173 40.4979 56.9852 40.6358 56.2471 40.6316C55.4183 40.6316 54.6234 40.9608 54.0374 41.5469C53.4513 42.1329 53.1221 42.9278 53.1221 43.7566C53.1221 44.5854 53.4513 45.3802 54.0374 45.9663C54.6234 46.5524 55.4183 46.8816 56.2471 46.8816C56.9596 46.8826 57.6708 46.8199 58.3721 46.6941C59.0105 47.6821 59.3571 48.8303 59.3721 50.0066C59.3721 51.6642 58.7136 53.2539 57.5415 54.426C56.3694 55.5981 54.7797 56.2566 53.1221 56.2566C51.6471 56.258 50.2192 55.7378 49.0908 54.7878C48.4527 54.2574 47.6299 54.0022 46.8036 54.0784C45.9772 54.1546 45.215 54.5559 44.6846 55.1941C44.1542 55.8323 43.899 56.655 43.9751 57.4814C44.0513 58.3077 44.4527 59.0699 45.0908 59.6003C45.5656 59.9795 46.0668 60.3241 46.5908 60.6316C46.349 61.1857 45.9516 61.6578 45.4469 61.9906C44.9421 62.3234 44.3517 62.5027 43.7471 62.5066C42.9183 62.5066 42.1234 62.1774 41.5374 61.5913C40.9513 61.0053 40.6221 60.2104 40.6221 59.3816V53.1316C40.629 51.8525 41.0283 50.6063 41.7659 49.5613C42.5036 48.5163 43.5441 47.7227 44.7471 47.2878C45.5344 47.0226 46.1842 46.4555 46.5534 45.7112C46.9226 44.9669 46.981 44.1065 46.7158 43.3191C46.4506 42.5317 45.8835 41.882 45.1392 41.5128C44.3949 41.1436 43.5344 41.0851 42.7471 41.3503C42.0133 41.6267 41.3027 41.9611 40.6221 42.3503V37.5066C40.629 36.2275 41.0283 34.9813 41.7659 33.9363C42.5036 32.8913 43.5441 32.0977 44.7471 31.6628C45.5344 31.3976 46.1842 30.8305 46.5534 30.0862C46.9226 29.3419 46.981 28.4815 46.7158 27.6941C46.4506 26.9067 45.8835 26.257 45.1392 25.8878C44.3949 25.5186 43.5344 25.4601 42.7471 25.7253C42.0133 26.0017 41.3027 26.3361 40.6221 26.7253V15.6316C40.6221 14.8028 40.9513 14.0079 41.5374 13.4219C42.1234 12.8358 42.9183 12.5066 43.7471 12.5066C44.5759 12.5066 45.3707 12.8358 45.9568 13.4219C46.5428 14.0079 46.8721 14.8028 46.8721 15.6316C46.8676 16.178 46.728 16.7147 46.4658 17.1941C46.2579 17.5489 46.1221 17.9413 46.0661 18.3487C46.0101 18.7561 46.0351 19.1705 46.1396 19.5683C46.2441 19.966 46.4261 20.3392 46.6752 20.6664C46.9242 20.9937 47.2354 21.2686 47.5908 21.4753C47.9475 21.682 48.3415 21.816 48.7502 21.8697C49.1589 21.9234 49.5742 21.8957 49.9721 21.7882C50.37 21.6808 50.7428 21.4956 51.0689 21.2435C51.395 20.9913 51.6679 20.6772 51.8721 20.3191C52.106 19.8127 52.3044 19.2906 52.4658 18.7566C52.6835 18.7262 52.9044 18.7262 53.1221 18.7566C53.9509 18.7566 54.7457 19.0858 55.3318 19.6719C55.9178 20.2579 56.2471 21.0528 56.2471 21.8816C56.2423 22.4942 56.0576 23.0919 55.7158 23.6003C55.4603 24.0059 55.1053 24.3393 54.6846 24.5691C53.9635 24.9835 53.4366 25.6674 53.2198 26.4703C53.0029 27.2731 53.1139 28.1293 53.5283 28.8503C53.9427 29.5714 54.6266 30.0983 55.4295 30.3151C56.2324 30.532 57.0885 30.421 57.8096 30.0066C58.3707 29.7032 58.8949 29.3362 59.3721 28.9128C60.4143 29.493 61.2687 30.3592 61.8345 31.4092C62.4002 32.4592 62.6537 33.6493 62.565 34.8387C62.4763 36.0282 62.0491 37.1674 61.3338 38.1219C60.6185 39.0764 59.645 39.8063 58.5283 40.2253H58.4033Z" fill="#00B1BB"/>
</svg>
