<svg width="75" height="75" viewBox="0 0 75 75" fill="none" xmlns="http://www.w3.org/2000/svg">
<path d="M58.4689 22.5337C58.1784 22.2408 57.8328 22.0084 57.452 21.8497C57.0711 21.6911 56.6627 21.6094 56.2501 21.6094C55.8376 21.6094 55.4292 21.6911 55.0483 21.8497C54.6675 22.0084 54.3219 22.2408 54.0314 22.5337L30.7501 45.8462L20.9689 36.0337C20.6673 35.7424 20.3112 35.5133 19.921 35.3595C19.5309 35.2057 19.1142 35.1303 18.6949 35.1376C18.2756 35.1448 17.8618 35.2346 17.4772 35.4018C17.0926 35.569 16.7446 35.8102 16.4533 36.1119C16.1619 36.4135 15.9328 36.7696 15.779 37.1597C15.6253 37.5499 15.5499 37.9665 15.5571 38.3859C15.5644 38.8052 15.6541 39.219 15.8213 39.6036C15.9885 39.9882 16.2298 40.3361 16.5314 40.6275L28.5314 52.6275C28.8219 52.9204 29.1675 53.1529 29.5483 53.3115C29.9292 53.4702 30.3376 53.5519 30.7501 53.5519C31.1627 53.5519 31.5711 53.4702 31.952 53.3115C32.3328 53.1529 32.6784 52.9204 32.9689 52.6275L58.4689 27.1275C58.7861 26.8349 59.0392 26.4797 59.2124 26.0844C59.3855 25.6891 59.4749 25.2622 59.4749 24.8306C59.4749 24.3991 59.3855 23.9722 59.2124 23.5768C59.0392 23.1815 58.7861 22.8264 58.4689 22.5337Z" fill="#00B1BB"/>
</svg>
