<svg width="75" height="75" viewBox="0 0 75 75" fill="none" xmlns="http://www.w3.org/2000/svg">
<path d="M68.7491 30.216C68.5518 29.6444 68.1928 29.1423 67.7158 28.7707C67.2388 28.399 66.6642 28.1738 66.0616 28.1222L48.2804 25.5285L40.3116 9.37222C40.0557 8.84387 39.6562 8.39829 39.1588 8.08651C38.6614 7.77473 38.0862 7.60938 37.4991 7.60938C36.9121 7.60938 36.3369 7.77473 35.8395 8.08651C35.3421 8.39829 34.9425 8.84387 34.6866 9.37222L26.7179 25.4972L8.93664 28.1222C8.35827 28.2044 7.81452 28.4471 7.36711 28.8227C6.91969 29.1983 6.58651 29.6918 6.40539 30.2472C6.23959 30.79 6.22471 31.3676 6.36235 31.9181C6.49998 32.4687 6.78494 32.9714 7.18664 33.3722L20.0929 45.8722L16.9679 63.6222C16.8417 64.211 16.8884 64.8238 17.1022 65.3867C17.3161 65.9496 17.688 66.4388 18.1733 66.7953C18.6586 67.1519 19.2365 67.3606 19.8377 67.3964C20.4388 67.4322 21.0374 67.2936 21.5616 66.9972L37.4991 58.6535L53.4366 66.9972C53.8752 67.2446 54.3706 67.3739 54.8741 67.3722C55.5361 67.3746 56.1817 67.1667 56.7179 66.7785C57.2027 66.4312 57.578 65.9524 57.7995 65.3986C58.021 64.8449 58.0794 64.2393 57.9679 63.6535L54.8429 45.9035L67.7491 33.4035C68.2003 33.0212 68.5338 32.5188 68.7108 31.9546C68.8878 31.3903 68.9011 30.7875 68.7491 30.216ZM49.5304 42.716C49.1687 43.0672 48.8974 43.5008 48.7395 43.9797C48.5817 44.4585 48.5421 44.9685 48.6241 45.466L50.8741 58.591L39.1241 52.341C38.6675 52.1151 38.1649 51.9976 37.6554 51.9976C37.1459 51.9976 36.6433 52.1151 36.1866 52.341L24.4366 58.591L26.6866 45.466C26.7686 44.9685 26.729 44.4585 26.5712 43.9797C26.4134 43.5008 26.1421 43.0672 25.7804 42.716L16.4054 33.341L29.5616 31.4347C30.0679 31.3643 30.5491 31.1708 30.9632 30.8711C31.3773 30.5715 31.7115 30.1748 31.9366 29.716L37.4991 17.8097L43.3741 29.7472C43.5993 30.2061 43.9335 30.6027 44.3476 30.9024C44.7616 31.202 45.2429 31.3955 45.7491 31.466L58.9054 33.3722L49.5304 42.716Z" fill="#00B1BB"/>
</svg>
