<svg width="48" height="59" viewBox="0 0 48 59" fill="none" xmlns="http://www.w3.org/2000/svg">
<path fill-rule="evenodd" clip-rule="evenodd" d="M47.8187 19.6133C47.9054 19.871 47.9646 20.1372 47.9952 20.4074V20.5838V49.9949C47.9952 52.335 47.0656 54.5792 45.4109 56.2339C43.7562 57.8886 41.512 58.8182 39.1719 58.8182H9.76082C7.42073 58.8182 5.17648 57.8886 3.52179 56.2339C1.8671 54.5792 0.9375 52.335 0.9375 49.9949V8.81941C0.9375 6.47932 1.8671 4.23508 3.52179 2.58038C5.17648 0.925691 7.42073 -0.00390625 9.76082 -0.00390625H27.5545C27.8963 0.0382816 28.2263 0.14827 28.5251 0.319615C28.6129 0.307145 28.702 0.307145 28.7898 0.319615C29.0922 0.461027 29.3702 0.649655 29.6133 0.878425L47.2599 18.5251C47.4887 18.7682 47.6773 19.0462 47.8187 19.3486V19.6133ZM37.966 17.6427L30.3486 10.0253V14.7016C30.3486 15.4817 30.6584 16.2297 31.21 16.7813C31.7616 17.3329 32.5096 17.6427 33.2897 17.6427H37.966ZM41.2516 52.0746C41.8031 51.523 42.113 50.7749 42.113 49.9949V23.5249H33.2897C30.9496 23.5249 28.7053 22.5953 27.0506 20.9407C25.3959 19.286 24.4664 17.0417 24.4664 14.7016V5.87831H9.76082C8.98079 5.87831 8.23271 6.18817 7.68114 6.73974C7.12958 7.2913 6.81971 8.03938 6.81971 8.81941V49.9949C6.81971 50.7749 7.12958 51.523 7.68114 52.0746C8.23271 52.6261 8.98079 52.936 9.76082 52.936H39.1719C39.9519 52.936 40.7 52.6261 41.2516 52.0746Z" fill="white"/>
</svg>
