<svg width="50" height="50" viewBox="0 0 50 50" fill="none" xmlns="http://www.w3.org/2000/svg">
<path d="M40.5011 27.084C40.0427 27.084 39.5636 26.9382 39.1052 26.834C38.1771 26.6295 37.265 26.3579 36.3761 26.0215C35.4096 25.6699 34.3472 25.6881 33.3934 26.0728C32.4395 26.4574 31.6617 27.1811 31.2094 28.1048L30.7511 29.0423C28.7219 27.9135 26.8573 26.5116 25.2094 24.8757C23.5735 23.2278 22.1715 21.3632 21.0427 19.334L21.9177 18.7507C22.8414 18.2984 23.5652 17.5205 23.9498 16.5667C24.3344 15.6129 24.3527 14.5505 24.0011 13.584C23.6703 12.6932 23.3988 11.7815 23.1886 10.8548C23.0844 10.3965 23.0011 9.91733 22.9386 9.43816C22.6856 7.9707 21.9169 6.64179 20.7711 5.69074C19.6253 4.7397 18.1775 4.22901 16.6886 4.25066H10.4386C9.54071 4.24223 8.65159 4.42736 7.83171 4.79343C7.01183 5.15951 6.28046 5.69794 5.68738 6.37208C5.0943 7.04622 4.65343 7.84023 4.39479 8.70007C4.13615 9.5599 4.06581 10.4654 4.18856 11.3548C5.29844 20.0827 9.28446 28.1921 15.517 34.402C21.7496 40.6119 29.8734 44.5684 38.6052 45.6465H39.3969C40.9332 45.6487 42.4165 45.0851 43.5636 44.0632C44.2227 43.4737 44.7492 42.751 45.1083 41.943C45.4674 41.1349 45.651 40.2599 45.6469 39.3757V33.1257C45.6214 31.6785 45.0944 30.2851 44.1559 29.1833C43.2175 28.0815 41.9257 27.3395 40.5011 27.084ZM41.5427 39.584C41.5424 39.8798 41.479 40.1721 41.3569 40.4415C41.2347 40.7109 41.0566 40.9513 40.8344 41.1465C40.6023 41.3486 40.3302 41.4994 40.0358 41.5892C39.7414 41.6789 39.4314 41.7056 39.1261 41.6673C31.3238 40.6669 24.0766 37.0975 18.5276 31.5221C12.9786 25.9467 9.44359 18.6826 8.48023 10.8757C8.44707 10.5705 8.47613 10.2618 8.56565 9.96814C8.65517 9.67452 8.80329 9.40209 9.00106 9.16733C9.19629 8.9451 9.43661 8.767 9.70602 8.64486C9.97543 8.52273 10.2678 8.45937 10.5636 8.45899H16.8136C17.298 8.44821 17.7711 8.60666 18.1514 8.90706C18.5316 9.20746 18.7953 9.63101 18.8969 10.1048C18.9802 10.6743 19.0844 11.2368 19.2094 11.7923C19.4501 12.8905 19.7704 13.9698 20.1677 15.0215L17.2511 16.3757C17.0017 16.4901 16.7774 16.6526 16.591 16.854C16.4046 17.0553 16.2598 17.2915 16.165 17.549C16.0701 17.8064 16.027 18.0801 16.0382 18.3542C16.0494 18.6284 16.1147 18.8976 16.2302 19.1465C19.2286 25.5689 24.3912 30.7315 30.8136 33.7298C31.3208 33.9382 31.8897 33.9382 32.3969 33.7298C32.6567 33.6369 32.8955 33.4933 33.0993 33.3073C33.3032 33.1213 33.4681 32.8967 33.5844 32.6465L34.8761 29.7298C35.9531 30.115 37.0523 30.435 38.1677 30.6882C38.7233 30.8132 39.2858 30.9173 39.8552 31.0007C40.329 31.1023 40.7526 31.3659 41.053 31.7462C41.3534 32.1264 41.5118 32.5995 41.5011 33.084L41.5427 39.584Z" fill="white"/>
</svg>
