<svg width="75" height="75" viewBox="0 0 75 75" fill="none" xmlns="http://www.w3.org/2000/svg">
<path d="M38.4399 38.1875C40.1074 36.7442 41.4448 34.959 42.3614 32.9532C43.2781 30.9474 43.7525 28.7678 43.7524 26.5625C43.7524 22.4185 42.1062 18.4442 39.176 15.514C36.2457 12.5837 32.2715 10.9375 28.1274 10.9375C23.9834 10.9375 20.0092 12.5837 17.0789 15.514C14.1486 18.4442 12.5024 22.4185 12.5024 26.5625C12.5024 28.7678 12.9768 30.9474 13.8935 32.9532C14.8101 34.959 16.1475 36.7442 17.8149 38.1875C13.4404 40.1684 9.7289 43.3673 7.12425 47.4017C4.51961 51.4361 3.13204 56.1353 3.12744 60.9375C3.12744 61.7663 3.45668 62.5612 4.04273 63.1472C4.62878 63.7333 5.42364 64.0625 6.25244 64.0625C7.08124 64.0625 7.8761 63.7333 8.46215 63.1472C9.0482 62.5612 9.37744 61.7663 9.37744 60.9375C9.37744 55.9647 11.3529 51.1956 14.8692 47.6793C18.3855 44.1629 23.1546 42.1875 28.1274 42.1875C33.1003 42.1875 37.8694 44.1629 41.3857 47.6793C44.902 51.1956 46.8774 55.9647 46.8774 60.9375C46.8774 61.7663 47.2067 62.5612 47.7927 63.1472C48.3788 63.7333 49.1736 64.0625 50.0024 64.0625C50.8312 64.0625 51.6261 63.7333 52.2122 63.1472C52.7982 62.5612 53.1274 61.7663 53.1274 60.9375C53.1228 56.1353 51.7353 51.4361 49.1306 47.4017C46.526 43.3673 42.8145 40.1684 38.4399 38.1875ZM28.1274 35.9375C26.2732 35.9375 24.4607 35.3877 22.919 34.3575C21.3773 33.3274 20.1756 31.8632 19.4661 30.1502C18.7565 28.4371 18.5708 26.5521 18.9326 24.7335C19.2943 22.915 20.1872 21.2445 21.4983 19.9334C22.8094 18.6223 24.4799 17.7294 26.2985 17.3676C28.117 17.0059 30.002 17.1916 31.7151 17.9011C33.4282 18.6107 34.8923 19.8123 35.9225 21.354C36.9526 22.8957 37.5024 24.7083 37.5024 26.5625C37.5024 29.0489 36.5147 31.4335 34.7566 33.1916C32.9984 34.9498 30.6138 35.9375 28.1274 35.9375ZM58.5649 36.9375C60.5648 34.6854 61.8712 31.9033 62.3268 28.9261C62.7824 25.9488 62.3678 22.9034 61.133 20.1563C59.8981 17.4091 57.8955 15.0775 55.3664 13.4419C52.8373 11.8064 49.8893 10.9367 46.8774 10.9375C46.0486 10.9375 45.2538 11.2667 44.6677 11.8528C44.0817 12.4388 43.7524 13.2337 43.7524 14.0625C43.7524 14.8913 44.0817 15.6862 44.6677 16.2722C45.2538 16.8583 46.0486 17.1875 46.8774 17.1875C49.3638 17.1875 51.7484 18.1752 53.5066 19.9334C55.2647 21.6915 56.2524 24.0761 56.2524 26.5625C56.248 28.2039 55.8127 29.8153 54.9901 31.2357C54.1675 32.6561 52.9864 33.8356 51.5649 34.6563C51.1016 34.9235 50.7147 35.3052 50.4411 35.7648C50.1675 36.2244 50.0165 36.7466 50.0024 37.2813C49.9894 37.8118 50.1116 38.3369 50.3576 38.8071C50.6037 39.2773 50.9654 39.677 51.4087 39.9688L52.6274 40.7813L53.0337 41C56.8005 42.7866 59.9784 45.6125 62.193 49.1447C64.4076 52.677 65.5667 56.7686 65.5337 60.9375C65.5337 61.7663 65.8629 62.5612 66.449 63.1472C67.035 63.7333 67.8299 64.0625 68.6587 64.0625C69.4875 64.0625 70.2823 63.7333 70.8684 63.1472C71.4545 62.5612 71.7837 61.7663 71.7837 60.9375C71.8092 56.142 70.6081 51.4195 68.2945 47.2189C65.9809 43.0183 62.6316 39.4791 58.5649 36.9375Z" fill="#00B1BB"/>
</svg>
