<svg width="187" height="68" viewBox="0 0 187 68" fill="none" xmlns="http://www.w3.org/2000/svg">
<g clip-path="url(#clip0_8_348)">
<path d="M119.188 34C119.194 40.7169 121.188 47.2811 124.917 52.8629C128.647 58.4447 133.944 62.7935 140.14 65.3596C146.337 67.9256 153.153 68.5938 159.728 67.2795C166.303 65.9652 172.342 62.7276 177.08 57.9758C181.819 53.224 185.045 47.1714 186.351 40.5831C187.657 33.9949 186.983 27.1666 184.416 20.9616C181.849 14.7566 177.503 9.45344 171.928 5.72239C166.353 1.99134 159.798 2.97215e-06 153.094 0C144.097 0.00564838 135.472 3.5906 129.113 9.96653C122.755 16.3425 119.185 24.9873 119.188 34Z" fill="#00A1AF"/>
<path d="M170.977 21.2926H165.799V38.4737C165.874 39.725 165.521 40.9645 164.8 41.9888C164.431 42.4156 163.968 42.7512 163.448 42.9692C162.928 43.1872 162.364 43.2818 161.802 43.2456C159.101 43.2456 157.421 41.4242 157.421 38.4737V25.074C157.456 24.5694 157.382 24.0633 157.205 23.5896C157.028 23.1159 156.752 22.6856 156.396 22.3274C156.039 21.9693 155.611 21.6918 155.138 21.5133C154.666 21.3348 154.161 21.2596 153.657 21.2926H148.756V38.4844C148.756 41.4242 147.076 43.2456 144.386 43.2456C143.822 43.2819 143.257 43.1873 142.735 42.9693C142.213 42.7514 141.748 42.4158 141.377 41.9888C140.664 40.9609 140.316 39.7232 140.388 38.4737V24.6905C140.338 23.7893 139.952 22.9399 139.306 22.3105C138.66 21.6812 137.802 21.3179 136.901 21.2926H131.723V38.8572C131.713 41.3626 132.446 43.8145 133.828 45.9028C135.21 47.9911 137.179 49.6219 139.486 50.5889C141.793 51.5558 144.334 51.8155 146.789 51.3351C149.243 50.8546 151.5 49.6556 153.275 47.8897C154.372 49.0443 155.692 49.9649 157.153 50.5964C158.615 51.2278 160.189 51.5572 161.78 51.5646C165.139 51.5561 168.357 50.2135 170.729 47.8314C173.101 45.4492 174.433 42.2219 174.433 38.8572V25.0101C174.457 24.5346 174.386 24.059 174.223 23.6118C174.06 23.1646 173.808 22.7548 173.484 22.407C173.16 22.0591 172.768 21.7802 172.334 21.5869C171.9 21.3936 171.431 21.2899 170.956 21.282" fill="white"/>
<path d="M20.8179 38.3139C20.8737 39.7494 20.5857 41.1775 19.978 42.4787C19.4213 43.5591 18.5791 44.4655 17.5432 45.099C16.3726 45.794 15.0809 46.2603 13.7368 46.4731C12.1001 46.7503 10.4421 46.8822 8.78218 46.8672H0V17.8202C1.47788 17.6817 2.87071 17.5645 4.18911 17.4793C5.50751 17.3941 6.7727 17.3408 7.99541 17.3408C9.83328 17.3096 11.6692 17.4775 13.471 17.8415C14.7392 18.0944 15.9456 18.5938 17.0222 19.3114C17.8628 19.898 18.5163 20.7154 18.9041 21.6654C19.2997 22.6611 19.4948 23.7254 19.4782 24.797C19.4959 25.6603 19.3554 26.5195 19.0636 27.3321C18.8084 28.0215 18.4499 28.668 18.0004 29.2493C17.5948 29.772 17.1105 30.2284 16.565 30.6021C16.1021 30.9174 15.6067 31.1817 15.0872 31.3903C15.6919 31.5612 16.285 31.7712 16.8627 32.0188C18.3348 32.6329 19.5279 33.7712 20.2118 35.2143C20.6402 36.1636 20.8474 37.198 20.8179 38.2393M13.3753 25.1165C13.4332 24.5572 13.3297 23.993 13.0772 23.4908C12.8247 22.9886 12.4337 22.5695 11.9506 22.2832C10.7601 21.7056 9.44444 21.4347 8.12299 21.495C7.57011 21.495 7.1236 21.495 6.77274 21.495L5.90088 21.5908V29.6968H8.78218C9.40277 29.7306 10.0236 29.6333 10.6042 29.4113C11.1849 29.1892 11.7124 28.8474 12.1527 28.4079C12.5663 27.9607 12.8873 27.4358 13.0972 26.8635C13.3071 26.2913 13.4016 25.683 13.3753 25.0739M8.34629 42.4361C9.23908 42.4411 10.131 42.3806 11.015 42.255C11.723 42.1686 12.4064 41.9404 13.0245 41.5839C13.5643 41.2606 14.0027 40.7918 14.2897 40.2312C14.6068 39.5259 14.756 38.7566 14.7256 37.9837C14.7843 37.3378 14.6693 36.6881 14.3926 36.1018C14.1159 35.5155 13.6876 35.0141 13.1521 34.6497C11.9174 33.9463 10.5095 33.6066 9.09056 33.6698H5.90088V42.4361H8.34629Z" fill="#FF6B00"/>
<path d="M42.0825 41.8078C41.9606 43.5396 42.3058 45.2724 43.0819 46.8247C42.6109 47.015 42.1233 47.1613 41.6253 47.2614C41.159 47.3486 40.6855 47.3914 40.2112 47.3893C39.3796 47.4476 38.5515 47.2345 37.8509 46.7821C37.2852 46.3586 36.9044 45.7329 36.7876 45.0352C36.0661 45.7618 35.2102 46.3407 34.2678 46.7395C33.0527 47.2304 31.7499 47.466 30.4401 47.4318C29.6463 47.4297 28.8562 47.3222 28.0905 47.1123C27.3213 46.8939 26.5999 46.5325 25.964 46.0471C25.2977 45.5161 24.7628 44.8381 24.401 44.0659C23.9716 43.117 23.7643 42.0823 23.795 41.0409C23.7366 39.7553 24.1111 38.4874 24.8582 37.4406C25.5638 36.5097 26.478 35.7581 27.5269 35.2464C28.6234 34.7012 29.7954 34.3242 31.0037 34.128C32.2583 33.9362 33.3959 33.7978 34.4485 33.7445C34.7888 33.7445 35.129 33.7445 35.5117 33.7445H36.4474V32.9456C36.4915 32.5059 36.4339 32.0619 36.279 31.6481C36.1241 31.2343 35.8762 30.8619 35.5543 30.5597C34.6912 30.0191 33.6767 29.7725 32.6623 29.8566C31.5238 29.8364 30.3927 30.0427 29.3344 30.4638C28.3581 30.8765 27.4066 31.346 26.485 31.8698C26.0808 31.3738 25.7512 30.8212 25.5068 30.2295C25.3075 29.8103 25.1816 29.36 25.1347 28.898C25.1517 28.6638 25.2218 28.4365 25.3397 28.2334C25.4576 28.0304 25.6202 27.8569 25.8151 27.7263C26.3688 27.2712 26.9939 26.9113 27.6651 26.6612C28.5384 26.3371 29.4386 26.0912 30.3551 25.9262C31.4072 25.7317 32.475 25.6354 33.5448 25.6386C34.8862 25.6105 36.2248 25.7718 37.5213 26.1179C38.5111 26.3875 39.4201 26.8959 40.1687 27.5985C40.8645 28.295 41.3666 29.1615 41.6253 30.1123C41.9317 31.2546 42.0785 32.434 42.0612 33.6167L42.0825 41.8078ZM36.5218 36.7483H35.9158C35.7104 36.7373 35.5045 36.7373 35.2991 36.7483C34.5761 36.8122 33.8637 36.8974 33.1726 37.0146C32.5136 37.1151 31.8748 37.3201 31.2801 37.6217C30.7517 37.8973 30.2905 38.2864 29.9298 38.7614C29.5612 39.2827 29.3777 39.9128 29.4088 40.5509C29.3878 41.3017 29.6368 42.0351 30.1105 42.6173C30.4111 42.9268 30.7777 43.1641 31.1827 43.3117C31.5878 43.4592 32.0209 43.5132 32.4497 43.4695C32.9823 43.4721 33.5124 43.3967 34.0233 43.2458C34.4803 43.1204 34.917 42.9303 35.3204 42.6812C35.663 42.4833 35.9658 42.2232 36.2135 41.9143C36.4045 41.7061 36.5205 41.4399 36.5431 41.158L36.5218 36.7483Z" fill="#FF6B00"/>
<path d="M53.5653 46.8672H47.6538V26.2456L48.1642 26.1497L48.7702 26.0858H49.5889C50.4143 26.0643 51.2334 26.2357 51.9811 26.5864C52.3194 26.7576 52.6117 27.0074 52.8337 27.3151C53.0557 27.6227 53.2009 27.9792 53.257 28.3546C53.8822 27.5801 54.6652 26.9483 55.5536 26.5013C56.8335 25.88 58.2474 25.5871 59.6683 25.6491C61.2909 25.5184 62.9089 25.9509 64.2508 26.874C65.2386 27.687 65.9179 28.815 66.1752 30.0695C66.319 30.772 66.4114 31.484 66.4517 32.1999C66.4517 32.9881 66.5261 33.7656 66.5261 34.5112V46.8139H60.6039V34.8628C60.6039 34.2237 60.5827 33.6272 60.5402 33.0733C60.5288 32.5902 60.4278 32.1134 60.2424 31.6673C60.0474 31.2689 59.7257 30.9467 59.3281 30.7512C58.7691 30.5069 58.1617 30.394 57.5524 30.421C56.5835 30.3982 55.6259 30.6334 54.7774 31.1027C54.4492 31.2474 54.1673 31.4801 53.9627 31.7753C53.7582 32.0704 53.6391 32.4163 53.6186 32.775L53.5653 46.8672Z" fill="#FF6B00"/>
<path d="M82.4743 43.1177C83.063 43.1241 83.6499 43.0488 84.218 42.894C84.7026 42.7704 85.1704 42.5881 85.6108 42.3508C85.9897 42.1602 86.3463 41.928 86.674 41.6584C86.9107 41.4672 87.1279 41.2532 87.3226 41.0193C87.7166 41.4838 88.0457 41.9998 88.3008 42.5531C88.5986 43.0709 88.7732 43.6504 88.8111 44.2467C88.8101 44.5402 88.7486 44.8303 88.6304 45.0989C88.4602 45.4427 88.2037 45.7363 87.8861 45.951C87.1683 46.4443 86.3795 46.8251 85.547 47.0801C84.2945 47.4674 82.9872 47.6472 81.6769 47.6126C80.5333 47.5981 79.3952 47.4516 78.2852 47.1759C77.0493 46.8705 75.893 46.304 74.8936 45.5143C73.7749 44.6071 72.8829 43.451 72.2886 42.1377C71.5158 40.3597 71.1524 38.4303 71.2254 36.4924C71.1396 34.6293 71.5044 32.7729 72.2886 31.0814C72.8866 29.8574 73.7416 28.7773 74.7949 27.9151C75.8483 27.0528 77.0751 26.4288 78.3915 26.0857C79.4331 25.8079 80.5037 25.6542 81.5812 25.6277C82.6957 25.6177 83.8068 25.7502 84.8878 26.0218C85.7805 26.2358 86.6318 26.5957 87.4077 27.087C87.8533 27.3406 88.2438 27.681 88.556 28.0882C88.782 28.4243 88.8973 28.8229 88.8856 29.228C88.858 29.7502 88.7242 30.2613 88.4922 30.7298C88.2321 31.3181 87.8961 31.8696 87.4927 32.3702C86.8902 31.774 86.2021 31.2715 85.4514 30.879C84.5265 30.3833 83.4913 30.1304 82.4424 30.144C81.6681 30.0682 80.8873 30.1907 80.1731 30.4999C79.459 30.8092 78.835 31.2951 78.3596 31.9121C77.5034 33.2537 77.0803 34.8269 77.1476 36.4178C77.1419 37.2978 77.2274 38.1758 77.4028 39.0381C77.5561 39.8006 77.8597 40.5249 78.2958 41.1684C78.7131 41.7733 79.2716 42.2669 79.9226 42.6064C80.6944 42.9777 81.5442 43.1567 82.3999 43.1283" fill="#FF6B00"/>
<path d="M112.223 36.4393C112.23 37.8569 112.044 39.2688 111.67 40.636C111.332 41.9229 110.727 43.124 109.895 44.1617C109.033 45.2097 107.941 46.0444 106.705 46.601C105.212 47.2543 103.592 47.5672 101.963 47.517C100.348 47.5613 98.7424 47.2599 97.2531 46.6329C96.0156 46.093 94.9228 45.2682 94.0634 44.2256C93.2402 43.1983 92.6359 42.013 92.2878 40.7426C91.9011 39.3884 91.7077 37.9862 91.7136 36.5778C91.7012 35.1311 91.9239 33.6921 92.3728 32.3171C92.7812 31.0359 93.4389 29.8485 94.3079 28.8234C95.1825 27.8048 96.2719 26.9935 97.4976 26.448C98.9444 25.8417 100.502 25.5443 102.069 25.5747C103.669 25.5343 105.26 25.8319 106.737 26.448C107.974 26.9641 109.068 27.7717 109.927 28.8021C110.734 29.8176 111.324 30.9887 111.66 32.2425C112.035 33.5913 112.221 34.9859 112.213 36.386M106.29 36.386C106.293 35.6053 106.236 34.8255 106.12 34.0533C106.027 33.3404 105.803 32.6509 105.461 32.0189C105.148 31.4464 104.699 30.9599 104.153 30.6022C103.514 30.2135 102.774 30.0244 102.027 30.059C101.278 30.034 100.539 30.2304 99.9005 30.6235C99.3435 30.9985 98.8813 31.4981 98.5502 32.0828C98.2006 32.7172 97.9564 33.4043 97.8272 34.1172C97.6776 34.8785 97.6029 35.6527 97.6039 36.4286C97.6083 37.2174 97.6759 38.0047 97.8059 38.7826C97.9191 39.5243 98.1487 40.2433 98.4864 40.913C98.7927 41.5229 99.2503 42.0437 99.8154 42.4255C100.465 42.7893 101.197 42.9804 101.942 42.9804C102.686 42.9804 103.418 42.7893 104.068 42.4255C104.633 42.0437 105.091 41.5229 105.397 40.913C105.737 40.246 105.96 39.5254 106.057 38.7826C106.172 37.9891 106.229 37.188 106.227 36.386" fill="#FF6B00"/>
</g>
<defs>
<clipPath id="clip0_8_348">
<rect width="187" height="68" fill="white"/>
</clipPath>
</defs>
</svg>
